<svg width="1449" height="855" viewBox="0 0 1449 855" fill="none" xmlns="http://www.w3.org/2000/svg">
<path d="M745.826 407.074H1226.87V436.074H745.826V407.074Z" fill="#E7E7E7"/>
<path d="M745.826 407.074H1226.87V436.074H745.826V407.074Z" fill="url(#paint0_linear_7_573)" fill-opacity="0.35"/>
<path d="M822.666 388.617H791.986C791.091 388.617 790.366 389.342 790.366 390.237V449.917C790.366 450.812 791.091 451.537 791.986 451.537H822.666C823.561 451.537 824.286 450.812 824.286 449.917V390.237C824.286 389.342 823.561 388.617 822.666 388.617Z" fill="#F0F0F0"/>
<path d="M822.666 388.617H791.986C791.091 388.617 790.366 389.342 790.366 390.237V449.917C790.366 450.812 791.091 451.537 791.986 451.537H822.666C823.561 451.537 824.286 450.812 824.286 449.917V390.237C824.286 389.342 823.561 388.617 822.666 388.617Z" fill="url(#paint1_linear_7_573)" fill-opacity="0.45"/>
<path d="M822.666 388.617H791.986C791.091 388.617 790.366 389.342 790.366 390.237V449.917C790.366 450.812 791.091 451.537 791.986 451.537H822.666C823.561 451.537 824.286 450.812 824.286 449.917V390.237C824.286 389.342 823.561 388.617 822.666 388.617Z" stroke="#677272" stroke-width="1.08012"/>
<path d="M915.349 359.074H869.311C865.732 359.074 862.83 361.976 862.83 365.555V452.593C862.83 456.172 865.732 459.074 869.311 459.074H915.349C918.928 459.074 921.83 456.172 921.83 452.593V365.555C921.83 361.976 918.928 359.074 915.349 359.074Z" fill="#8D9595"/>
<path d="M874.33 364.075L877.12 365.733L879.96 367.325L879.92 370.575L879.96 373.825L877.12 375.416L874.33 377.075L871.53 375.416L868.7 373.825L868.74 370.575L868.7 367.325L871.53 365.733L874.33 364.075Z" fill="#677272"/>
<path d="M874.38 373.19C875.794 373.19 876.941 372.043 876.941 370.629C876.941 369.215 875.794 368.068 874.38 368.068C872.966 368.068 871.819 369.215 871.819 370.629C871.819 372.043 872.966 373.19 874.38 373.19Z" fill="#B3B9B9"/>
<path d="M874.33 441.075L877.12 442.733L879.96 444.325L879.92 447.575L879.96 450.825L877.12 452.416L874.33 454.075L871.53 452.416L868.7 450.825L868.74 447.575L868.7 444.325L871.53 442.733L874.33 441.075Z" fill="#677272"/>
<path d="M874.38 450.19C875.794 450.19 876.941 449.043 876.941 447.629C876.941 446.215 875.794 445.068 874.38 445.068C872.966 445.068 871.819 446.215 871.819 447.629C871.819 449.043 872.966 450.19 874.38 450.19Z" fill="#B3B9B9"/>
<path d="M910.33 364.075L913.12 365.733L915.96 367.325L915.92 370.575L915.96 373.825L913.12 375.416L910.33 377.075L907.53 375.416L904.7 373.825L904.74 370.575L904.7 367.325L907.53 365.733L910.33 364.075Z" fill="#677272"/>
<path d="M910.38 373.19C911.794 373.19 912.941 372.043 912.941 370.629C912.941 369.215 911.794 368.068 910.38 368.068C908.966 368.068 907.819 369.215 907.819 370.629C907.819 372.043 908.966 373.19 910.38 373.19Z" fill="#B3B9B9"/>
<path d="M910.33 441.075L913.12 442.733L915.96 444.325L915.92 447.575L915.96 450.825L913.12 452.416L910.33 454.075L907.53 452.416L904.7 450.825L904.74 447.575L904.7 444.325L907.53 442.733L910.33 441.075Z" fill="#677272"/>
<path d="M910.38 450.19C911.794 450.19 912.941 449.043 912.941 447.629C912.941 446.215 911.794 445.068 910.38 445.068C908.966 445.068 907.819 446.215 907.819 447.629C907.819 449.043 908.966 450.19 910.38 450.19Z" fill="#B3B9B9"/>
<path d="M908.51 377.615H877.83C876.935 377.615 876.21 378.34 876.21 379.235V438.915C876.21 439.81 876.935 440.535 877.83 440.535H908.51C909.405 440.535 910.13 439.81 910.13 438.915V379.235C910.13 378.34 909.405 377.615 908.51 377.615Z" fill="#F0F0F0"/>
<path d="M908.51 377.615H877.83C876.935 377.615 876.21 378.34 876.21 379.235V438.915C876.21 439.81 876.935 440.535 877.83 440.535H908.51C909.405 440.535 910.13 439.81 910.13 438.915V379.235C910.13 378.34 909.405 377.615 908.51 377.615Z" fill="url(#paint2_linear_7_573)" fill-opacity="0.45"/>
<path d="M908.51 377.615H877.83C876.935 377.615 876.21 378.34 876.21 379.235V438.915C876.21 439.81 876.935 440.535 877.83 440.535H908.51C909.405 440.535 910.13 439.81 910.13 438.915V379.235C910.13 378.34 909.405 377.615 908.51 377.615Z" stroke="#677272" stroke-width="1.08012"/>
<path d="M899.349 386.157H886.99C885.201 386.157 883.75 387.608 883.75 389.397V401.756C883.75 403.546 885.201 404.997 886.99 404.997H899.349C901.139 404.997 902.59 403.546 902.59 401.756V389.397C902.59 387.608 901.139 386.157 899.349 386.157Z" fill="#FEF1DB"/>
<path d="M893.31 389.917C894.19 389.917 894.87 390.136 895.35 390.575C895.84 391.014 896.08 391.62 896.08 392.395C896.08 392.862 895.98 393.319 895.79 393.767C895.59 394.215 895.26 394.733 894.81 395.321L893.38 397.183C893.12 397.528 892.84 397.827 892.54 398.079L892.57 398.121C892.88 398.018 893.33 397.967 893.93 397.967H896.49L896.5 397.995L895.59 399.577H889.57L889.53 399.479L893.44 394.467C894.01 393.72 894.3 393.104 894.3 392.619C894.3 392.274 894.2 392.008 894 391.821C893.79 391.625 893.51 391.527 893.14 391.527C892.51 391.527 891.79 391.816 890.99 392.395L890.15 391.037C891.2 390.29 892.25 389.917 893.31 389.917Z" fill="#262626"/>
<path d="M899.349 386.157H886.99C885.201 386.157 883.75 387.608 883.75 389.397V401.756C883.75 403.546 885.201 404.997 886.99 404.997H899.349C901.139 404.997 902.59 403.546 902.59 401.756V389.397C902.59 387.608 901.139 386.157 899.349 386.157Z" stroke="#F9A823" stroke-width="2.16024"/>
<path d="M1246.35 359.074H1200.31C1196.73 359.074 1193.83 361.976 1193.83 365.555V452.593C1193.83 456.172 1196.73 459.074 1200.31 459.074H1246.35C1249.93 459.074 1252.83 456.172 1252.83 452.593V365.555C1252.83 361.976 1249.93 359.074 1246.35 359.074Z" fill="#8D9595"/>
<path d="M1205.33 364.075L1208.12 365.733L1210.96 367.325L1210.92 370.575L1210.96 373.825L1208.12 375.416L1205.33 377.075L1202.53 375.416L1199.7 373.825L1199.74 370.575L1199.7 367.325L1202.53 365.733L1205.33 364.075Z" fill="#677272"/>
<path d="M1205.38 373.19C1206.79 373.19 1207.94 372.043 1207.94 370.629C1207.94 369.215 1206.79 368.068 1205.38 368.068C1203.97 368.068 1202.82 369.215 1202.82 370.629C1202.82 372.043 1203.97 373.19 1205.38 373.19Z" fill="#B3B9B9"/>
<path d="M1205.33 441.075L1208.12 442.733L1210.96 444.325L1210.92 447.575L1210.96 450.825L1208.12 452.416L1205.33 454.075L1202.53 452.416L1199.7 450.825L1199.74 447.575L1199.7 444.325L1202.53 442.733L1205.33 441.075Z" fill="#677272"/>
<path d="M1205.38 450.19C1206.79 450.19 1207.94 449.043 1207.94 447.629C1207.94 446.215 1206.79 445.068 1205.38 445.068C1203.97 445.068 1202.82 446.215 1202.82 447.629C1202.82 449.043 1203.97 450.19 1205.38 450.19Z" fill="#B3B9B9"/>
<path d="M1241.33 364.075L1244.12 365.733L1246.96 367.325L1246.92 370.575L1246.96 373.825L1244.12 375.416L1241.33 377.075L1238.53 375.416L1235.7 373.825L1235.74 370.575L1235.7 367.325L1238.53 365.733L1241.33 364.075Z" fill="#677272"/>
<path d="M1241.38 373.19C1242.79 373.19 1243.94 372.043 1243.94 370.629C1243.94 369.215 1242.79 368.068 1241.38 368.068C1239.97 368.068 1238.82 369.215 1238.82 370.629C1238.82 372.043 1239.97 373.19 1241.38 373.19Z" fill="#B3B9B9"/>
<path d="M1241.33 441.075L1244.12 442.733L1246.96 444.325L1246.92 447.575L1246.96 450.825L1244.12 452.416L1241.33 454.075L1238.53 452.416L1235.7 450.825L1235.74 447.575L1235.7 444.325L1238.53 442.733L1241.33 441.075Z" fill="#677272"/>
<path d="M1241.38 450.19C1242.79 450.19 1243.94 449.043 1243.94 447.629C1243.94 446.215 1242.79 445.068 1241.38 445.068C1239.97 445.068 1238.82 446.215 1238.82 447.629C1238.82 449.043 1239.97 450.19 1241.38 450.19Z" fill="#B3B9B9"/>
<path d="M1183.83 396.074H1240.83V425.074H1183.83V396.074Z" fill="#E7E7E7"/>
<path d="M1183.83 396.074H1240.83V425.074H1183.83V396.074Z" fill="url(#paint3_linear_7_573)" fill-opacity="0.35"/>
<path d="M1238.67 377.615H1207.99C1207.1 377.615 1206.37 378.34 1206.37 379.235V438.915C1206.37 439.81 1207.1 440.535 1207.99 440.535H1238.67C1239.56 440.535 1240.29 439.81 1240.29 438.915V379.235C1240.29 378.34 1239.56 377.615 1238.67 377.615Z" fill="#F0F0F0"/>
<path d="M1238.67 377.615H1207.99C1207.1 377.615 1206.37 378.34 1206.37 379.235V438.915C1206.37 439.81 1207.1 440.535 1207.99 440.535H1238.67C1239.56 440.535 1240.29 439.81 1240.29 438.915V379.235C1240.29 378.34 1239.56 377.615 1238.67 377.615Z" fill="url(#paint4_linear_7_573)" fill-opacity="0.45"/>
<path d="M1238.67 377.615H1207.99C1207.1 377.615 1206.37 378.34 1206.37 379.235V438.915C1206.37 439.81 1207.1 440.535 1207.99 440.535H1238.67C1239.56 440.535 1240.29 439.81 1240.29 438.915V379.235C1240.29 378.34 1239.56 377.615 1238.67 377.615Z" stroke="#677272" stroke-width="1.08012"/>
<path d="M1229.51 384.155H1217.15C1215.36 384.155 1213.91 385.606 1213.91 387.395V399.754C1213.91 401.544 1215.36 402.995 1217.15 402.995H1229.51C1231.3 402.995 1232.75 401.544 1232.75 399.754V387.395C1232.75 385.606 1231.3 384.155 1229.51 384.155Z" fill="#FCDBCB"/>
<path d="M1224.61 388.124V397.574H1222.93V391.96C1222.93 391.503 1222.96 391.139 1223.04 390.868L1223 390.84C1222.89 390.99 1222.73 391.12 1222.51 391.232L1221.26 391.876V390.196L1223.02 388.95L1223.29 388.124H1224.61Z" fill="#262626"/>
<path d="M1229.51 384.155H1217.15C1215.36 384.155 1213.91 385.606 1213.91 387.395V399.754C1213.91 401.544 1215.36 402.995 1217.15 402.995H1229.51C1231.3 402.995 1232.75 401.544 1232.75 399.754V387.395C1232.75 385.606 1231.3 384.155 1229.51 384.155Z" stroke="#E32112" stroke-width="2.16024"/>
<path d="M1163.83 337.077H951.83C946.859 337.077 942.83 341.106 942.83 346.077V476.077C942.83 481.048 946.859 485.077 951.83 485.077H1163.83C1168.8 485.077 1172.83 481.048 1172.83 476.077V346.077C1172.83 341.106 1168.8 337.077 1163.83 337.077Z" fill="#E8EAEA"/>
<path d="M931.83 376.077H941.83V447.077L931.83 436.652V376.077Z" fill="#8D9595"/>
<path d="M1183.83 446.077H1173.83V375.077L1183.83 385.502V446.077Z" fill="#8D9595"/>
<path d="M1108.77 188.137H1099.77V336.078H1108.77V188.137Z" fill="#677272"/>
<path d="M1105.77 185.097H1102.77V335.623H1105.77V185.097Z" fill="white"/>
<path d="M916.826 100.074H704.826C699.855 100.074 695.826 104.104 695.826 109.074V254.074C695.826 259.045 699.855 263.074 704.826 263.074H916.826C921.797 263.074 925.826 259.045 925.826 254.074V109.074C925.826 104.104 921.797 100.074 916.826 100.074Z" fill="#E8EAEA"/>
<path d="M260.345 444.074H214.307C210.728 444.074 207.826 446.976 207.826 450.555V537.593C207.826 541.172 210.728 544.074 214.307 544.074H260.345C263.924 544.074 266.826 541.172 266.826 537.593V450.555C266.826 446.976 263.924 444.074 260.345 444.074Z" fill="#8D9595"/>
<path d="M219.326 449.074L222.121 450.733L224.955 452.324L224.916 455.574L224.955 458.824L222.121 460.415L219.326 462.074L216.531 460.415L213.697 458.824L213.736 455.574L213.697 452.324L216.531 450.733L219.326 449.074Z" fill="#677272"/>
<path d="M219.379 458.189C220.793 458.189 221.94 457.042 221.94 455.628C221.94 454.214 220.793 453.067 219.379 453.067C217.965 453.067 216.818 454.214 216.818 455.628C216.818 457.042 217.965 458.189 219.379 458.189Z" fill="#B3B9B9"/>
<path d="M219.326 526.074L222.121 527.733L224.955 529.324L224.916 532.574L224.955 535.824L222.121 537.415L219.326 539.074L216.531 537.415L213.697 535.824L213.736 532.574L213.697 529.324L216.531 527.733L219.326 526.074Z" fill="#677272"/>
<path d="M219.379 535.189C220.793 535.189 221.94 534.042 221.94 532.628C221.94 531.214 220.793 530.067 219.379 530.067C217.965 530.067 216.818 531.214 216.818 532.628C216.818 534.042 217.965 535.189 219.379 535.189Z" fill="#B3B9B9"/>
<path d="M255.326 449.074L258.121 450.733L260.955 452.324L260.916 455.574L260.955 458.824L258.121 460.415L255.326 462.074L252.531 460.415L249.697 458.824L249.736 455.574L249.697 452.324L252.531 450.733L255.326 449.074Z" fill="#677272"/>
<path d="M255.379 458.189C256.793 458.189 257.94 457.042 257.94 455.628C257.94 454.214 256.793 453.067 255.379 453.067C253.965 453.067 252.818 454.214 252.818 455.628C252.818 457.042 253.965 458.189 255.379 458.189Z" fill="#B3B9B9"/>
<path d="M255.326 526.074L258.121 527.733L260.955 529.324L260.916 532.574L260.955 535.824L258.121 537.415L255.326 539.074L252.531 537.415L249.697 535.824L249.736 532.574L249.697 529.324L252.531 527.733L255.326 526.074Z" fill="#677272"/>
<path d="M255.379 535.189C256.793 535.189 257.94 534.042 257.94 532.628C257.94 531.214 256.793 530.067 255.379 530.067C253.965 530.067 252.818 531.214 252.818 532.628C252.818 534.042 253.965 535.189 255.379 535.189Z" fill="#B3B9B9"/>
<path d="M249.469 478.229H373.826V507.11H249.469V478.229Z" fill="#E7E7E7"/>
<path d="M249.469 478.229H373.826V507.11H249.469V478.229Z" fill="url(#paint5_linear_7_573)" fill-opacity="0.35"/>
<path d="M252.666 462.614H221.986C221.091 462.614 220.366 463.339 220.366 464.234V523.914C220.366 524.809 221.091 525.534 221.986 525.534H252.666C253.56 525.534 254.286 524.809 254.286 523.914V464.234C254.286 463.339 253.56 462.614 252.666 462.614Z" fill="#F0F0F0"/>
<path d="M252.666 462.614H221.986C221.091 462.614 220.366 463.339 220.366 464.234V523.914C220.366 524.809 221.091 525.534 221.986 525.534H252.666C253.56 525.534 254.286 524.809 254.286 523.914V464.234C254.286 463.339 253.56 462.614 252.666 462.614Z" fill="url(#paint6_linear_7_573)" fill-opacity="0.45"/>
<path d="M252.666 462.614H221.986C221.091 462.614 220.366 463.339 220.366 464.234V523.914C220.366 524.809 221.091 525.534 221.986 525.534H252.666C253.56 525.534 254.286 524.809 254.286 523.914V464.234C254.286 463.339 253.56 462.614 252.666 462.614Z" stroke="#677272" stroke-width="1.08012"/>
<path d="M243.505 470.157H231.146C229.357 470.157 227.906 471.608 227.906 473.397V485.756C227.906 487.546 229.357 488.997 231.146 488.997H243.505C245.295 488.997 246.746 487.546 246.746 485.756V473.397C246.746 471.608 245.295 470.157 243.505 470.157Z" fill="#FFF8EC"/>
<path d="M237.266 473.917C238.293 473.917 239.119 474.244 239.744 474.897C240.369 475.541 240.682 476.395 240.682 477.459C240.682 478.15 240.565 478.789 240.332 479.377C240.099 479.956 239.702 480.59 239.142 481.281L237.336 483.577H235.292L237.868 480.483C238.307 479.951 238.591 479.522 238.722 479.195L238.666 479.167C238.227 479.951 237.593 480.343 236.762 480.343C235.931 480.343 235.241 480.044 234.69 479.447C234.149 478.85 233.878 478.098 233.878 477.193C233.878 476.232 234.191 475.448 234.816 474.841C235.451 474.225 236.267 473.917 237.266 473.917ZM237.28 475.513C236.785 475.513 236.384 475.667 236.076 475.975C235.777 476.274 235.628 476.67 235.628 477.165C235.628 477.66 235.777 478.056 236.076 478.355C236.375 478.644 236.776 478.789 237.28 478.789C237.793 478.789 238.199 478.644 238.498 478.355C238.797 478.056 238.946 477.66 238.946 477.165C238.946 476.652 238.797 476.25 238.498 475.961C238.199 475.662 237.793 475.513 237.28 475.513Z" fill="#262626"/>
<path d="M243.505 470.157H231.146C229.357 470.157 227.906 471.608 227.906 473.397V485.756C227.906 487.546 229.357 488.997 231.146 488.997H243.505C245.295 488.997 246.746 487.546 246.746 485.756V473.397C246.746 471.608 245.295 470.157 243.505 470.157Z" stroke="#FAB82E" stroke-width="2.16024"/>
<path d="M243.505 498.157H231.146C229.357 498.157 227.906 499.608 227.906 501.397V513.756C227.906 515.546 229.357 516.997 231.146 516.997H243.505C245.295 516.997 246.746 515.546 246.746 513.756V501.397C246.746 499.608 245.295 498.157 243.505 498.157Z" fill="#EFEFEF"/>
<path d="M239.799 511.059C239.202 511.544 238.376 511.787 237.321 511.787C236.266 511.787 235.44 511.544 234.843 511.059C234.255 510.564 233.961 509.883 233.961 509.015C233.961 508.352 234.134 507.802 234.479 507.363C234.834 506.924 235.319 506.658 235.935 506.565V506.509C235.422 506.416 235.011 506.178 234.703 505.795C234.395 505.403 234.241 504.932 234.241 504.381C234.241 503.625 234.516 503.028 235.067 502.589C235.627 502.141 236.378 501.917 237.321 501.917C238.264 501.917 239.015 502.141 239.575 502.589C240.135 503.028 240.415 503.625 240.415 504.381C240.415 504.932 240.261 505.403 239.953 505.795C239.645 506.178 239.234 506.416 238.721 506.509V506.565C239.328 506.668 239.808 506.938 240.163 507.377C240.518 507.816 240.695 508.362 240.695 509.015C240.695 509.883 240.396 510.564 239.799 511.059ZM236.355 505.459C236.598 505.674 236.92 505.781 237.321 505.781C237.722 505.781 238.044 505.674 238.287 505.459C238.53 505.244 238.651 504.955 238.651 504.591C238.651 504.236 238.53 503.952 238.287 503.737C238.044 503.513 237.722 503.401 237.321 503.401C236.92 503.401 236.598 503.513 236.355 503.737C236.122 503.952 236.005 504.236 236.005 504.591C236.005 504.955 236.122 505.244 236.355 505.459ZM236.173 509.827C236.453 510.088 236.836 510.219 237.321 510.219C237.806 510.219 238.189 510.088 238.469 509.827C238.758 509.566 238.903 509.211 238.903 508.763C238.903 508.306 238.758 507.946 238.469 507.685C238.189 507.414 237.806 507.279 237.321 507.279C236.845 507.279 236.462 507.414 236.173 507.685C235.893 507.946 235.753 508.306 235.753 508.763C235.753 509.202 235.893 509.556 236.173 509.827Z" fill="#262626"/>
<path d="M243.505 498.157H231.146C229.357 498.157 227.906 499.608 227.906 501.397V513.756C227.906 515.546 229.357 516.997 231.146 516.997H243.505C245.295 516.997 246.746 515.546 246.746 513.756V501.397C246.746 499.608 245.295 498.157 243.505 498.157Z" stroke="#414F4F" stroke-width="2.16024"/>
<path d="M336.826 478.074H575.449V507.074H336.826V478.074Z" fill="#E7E7E7"/>
<path d="M336.826 478.074H575.449V507.074H336.826V478.074Z" fill="url(#paint7_linear_7_573)" fill-opacity="0.35"/>
<path d="M449.345 444.074H403.307C399.727 444.074 396.826 446.976 396.826 450.555V537.593C396.826 541.172 399.727 544.074 403.307 544.074H449.345C452.924 544.074 455.826 541.172 455.826 537.593V450.555C455.826 446.976 452.924 444.074 449.345 444.074Z" fill="#8D9595"/>
<path d="M408.326 449.074L411.121 450.733L413.955 452.324L413.916 455.574L413.955 458.824L411.121 460.415L408.326 462.074L405.531 460.415L402.697 458.824L402.736 455.574L402.697 452.324L405.531 450.733L408.326 449.074Z" fill="#677272"/>
<path d="M408.379 458.189C409.793 458.189 410.94 457.042 410.94 455.628C410.94 454.214 409.793 453.067 408.379 453.067C406.965 453.067 405.818 454.214 405.818 455.628C405.818 457.042 406.965 458.189 408.379 458.189Z" fill="#B3B9B9"/>
<path d="M408.326 526.074L411.121 527.733L413.955 529.324L413.916 532.574L413.955 535.824L411.121 537.415L408.326 539.074L405.531 537.415L402.697 535.824L402.736 532.574L402.697 529.324L405.531 527.733L408.326 526.074Z" fill="#677272"/>
<path d="M408.379 535.189C409.793 535.189 410.94 534.042 410.94 532.628C410.94 531.214 409.793 530.067 408.379 530.067C406.965 530.067 405.818 531.214 405.818 532.628C405.818 534.042 406.965 535.189 408.379 535.189Z" fill="#B3B9B9"/>
<path d="M444.326 449.074L447.121 450.733L449.955 452.324L449.916 455.574L449.955 458.824L447.121 460.415L444.326 462.074L441.531 460.415L438.697 458.824L438.736 455.574L438.697 452.324L441.531 450.733L444.326 449.074Z" fill="#677272"/>
<path d="M444.379 458.189C445.793 458.189 446.94 457.042 446.94 455.628C446.94 454.214 445.793 453.067 444.379 453.067C442.965 453.067 441.818 454.214 441.818 455.628C441.818 457.042 442.965 458.189 444.379 458.189Z" fill="#B3B9B9"/>
<path d="M444.326 526.074L447.121 527.733L449.955 529.324L449.916 532.574L449.955 535.824L447.121 537.415L444.326 539.074L441.531 537.415L438.697 535.824L438.736 532.574L438.697 529.324L441.531 527.733L444.326 526.074Z" fill="#677272"/>
<path d="M444.379 535.189C445.793 535.189 446.94 534.042 446.94 532.628C446.94 531.214 445.793 530.067 444.379 530.067C442.965 530.067 441.818 531.214 441.818 532.628C441.818 534.042 442.965 535.189 444.379 535.189Z" fill="#B3B9B9"/>
<path d="M444.289 462.614H413.609C412.714 462.614 411.989 463.339 411.989 464.234V523.914C411.989 524.809 412.714 525.534 413.609 525.534H444.289C445.183 525.534 445.909 524.809 445.909 523.914V464.234C445.909 463.339 445.183 462.614 444.289 462.614Z" fill="#F0F0F0"/>
<path d="M444.289 462.614H413.609C412.714 462.614 411.989 463.339 411.989 464.234V523.914C411.989 524.809 412.714 525.534 413.609 525.534H444.289C445.183 525.534 445.909 524.809 445.909 523.914V464.234C445.909 463.339 445.183 462.614 444.289 462.614Z" fill="url(#paint8_linear_7_573)" fill-opacity="0.45"/>
<path d="M444.289 462.614H413.609C412.714 462.614 411.989 463.339 411.989 464.234V523.914C411.989 524.809 412.714 525.534 413.609 525.534H444.289C445.183 525.534 445.909 524.809 445.909 523.914V464.234C445.909 463.339 445.183 462.614 444.289 462.614Z" stroke="#677272" stroke-width="1.08012"/>
<path d="M434.505 500.157H422.146C420.357 500.157 418.906 501.608 418.906 503.397V515.756C418.906 517.546 420.357 518.997 422.146 518.997H434.505C436.295 518.997 437.746 517.546 437.746 515.756V503.397C437.746 501.608 436.295 500.157 434.505 500.157Z" fill="#EFEFEF"/>
<path d="M431.539 504.127L431.553 504.169L427.479 513.577H425.589L428.515 507.137C428.59 506.978 428.669 506.796 428.753 506.591C428.847 506.386 428.912 506.236 428.949 506.143C428.996 506.05 429.043 505.956 429.089 505.863C429.145 505.77 429.192 505.7 429.229 505.653L429.201 505.625C428.968 505.728 428.553 505.779 427.955 505.779H425.141L425.813 504.127H431.539Z" fill="#262626"/>
<path d="M434.505 500.157H422.146C420.357 500.157 418.906 501.608 418.906 503.397V515.756C418.906 517.546 420.357 518.997 422.146 518.997H434.505C436.295 518.997 437.746 517.546 437.746 515.756V503.397C437.746 501.608 436.295 500.157 434.505 500.157Z" stroke="#414F4F" stroke-width="2.16024"/>
<path d="M531.166 459.117H500.486C499.591 459.117 498.866 459.842 498.866 460.737V520.417C498.866 521.312 499.591 522.037 500.486 522.037H531.166C532.061 522.037 532.786 521.312 532.786 520.417V460.737C532.786 459.842 532.061 459.117 531.166 459.117Z" fill="#F0F0F0"/>
<path d="M531.166 459.117H500.486C499.591 459.117 498.866 459.842 498.866 460.737V520.417C498.866 521.312 499.591 522.037 500.486 522.037H531.166C532.061 522.037 532.786 521.312 532.786 520.417V460.737C532.786 459.842 532.061 459.117 531.166 459.117Z" fill="url(#paint9_linear_7_573)" fill-opacity="0.45"/>
<path d="M531.166 459.117H500.486C499.591 459.117 498.866 459.842 498.866 460.737V520.417C498.866 521.312 499.591 522.037 500.486 522.037H531.166C532.061 522.037 532.786 521.312 532.786 520.417V460.737C532.786 459.842 532.061 459.117 531.166 459.117Z" stroke="#677272" stroke-width="1.08012"/>
<path d="M655.638 182.574C655.638 179.536 658.101 177.074 661.138 177.074H667.638V186.074H655.638V182.574Z" fill="#677272"/>
<path d="M658.636 183.075C658.636 181.418 659.979 180.075 661.636 180.075H667.636V183.075H658.636Z" fill="white"/>
<path d="M694.826 177.074H666.638V186.074H694.826V177.074Z" fill="#677272"/>
<path d="M694.826 180.074H666.638V183.074H694.826V180.074Z" fill="white"/>
<path d="M655.638 186.055H664.638V377.076H655.638V186.055Z" fill="#677272"/>
<path d="M658.638 182.435H661.638V377.077H658.638V182.435Z" fill="white"/>
<path d="M1054.83 766.076H666.826V757.076H1054.83V766.076Z" fill="#677272"/>
<path d="M1054.83 763.076H666.826V760.076H1054.83V763.076Z" fill="white"/>
<path d="M655.826 760.576C655.826 763.613 658.288 766.076 661.326 766.076H667.826V757.076H655.826V760.576Z" fill="#677272"/>
<path d="M658.826 760.076C658.826 761.732 660.169 763.076 661.826 763.076H667.826V760.076H658.826Z" fill="white"/>
<path d="M655.826 757.985H664.826V539.075H655.826V757.985Z" fill="#677272"/>
<path d="M658.826 761.576H661.826V537.575H658.826V761.576Z" fill="white"/>
<path d="M1064.83 759.903C1064.83 763.313 1062.06 766.077 1058.65 766.077H1052.83V755.974H1064.83V759.903Z" fill="#677272"/>
<path d="M1061.83 759.342C1061.83 761.202 1060.32 762.709 1058.46 762.709H1052.83V759.342H1061.83Z" fill="white"/>
<path d="M1064.83 756.742H1055.83V486.077H1064.83V756.742Z" fill="#677272"/>
<path d="M1061.83 761.155H1058.83V486.077H1061.83V761.155Z" fill="white"/>
<path d="M1030.91 177.074H926.8V186.074H1030.91V177.074Z" fill="#677272"/>
<path d="M1030.91 180.074H926.8V183.074H1030.91V180.074Z" fill="white"/>
<path d="M1108.81 296.074V305.074H1177.32V296.074H1108.81Z" fill="#677272"/>
<path d="M1102.77 299.073V302.073H1177.33V299.073H1102.77Z" fill="white"/>
<path d="M364.326 382.574H297.326V593.574H364.326V382.574Z" fill="#677272" stroke="#B3B9B9" stroke-width="3"/>
<path d="M363.541 388.074H297.826V392.074H363.541V388.074Z" fill="#B3B9B9"/>
<path d="M363.541 404.074H297.826V408.074H363.541V404.074Z" fill="#B3B9B9"/>
<path d="M363.541 420.074H297.826V424.074H363.541V420.074Z" fill="#B3B9B9"/>
<path d="M363.541 436.074H297.826V440.074H363.541V436.074Z" fill="#B3B9B9"/>
<path d="M363.541 452.074H297.826V456.074H363.541V452.074Z" fill="#B3B9B9"/>
<path d="M363.541 468.074H297.826V472.074H363.541V468.074Z" fill="#B3B9B9"/>
<path d="M363.541 484.074H297.826V488.074H363.541V484.074Z" fill="#B3B9B9"/>
<path d="M363.541 500.074H297.826V504.074H363.541V500.074Z" fill="#B3B9B9"/>
<path d="M363.541 516.074H297.826V520.074H363.541V516.074Z" fill="#B3B9B9"/>
<path d="M363.541 532.074H297.826V536.074H363.541V532.074Z" fill="#B3B9B9"/>
<path d="M363.541 548.074H297.826V552.074H363.541V548.074Z" fill="#B3B9B9"/>
<path d="M363.541 564.074H297.826V568.074H363.541V564.074Z" fill="#B3B9B9"/>
<path d="M363.541 580.074H297.826V584.074H363.541V580.074Z" fill="#B3B9B9"/>
<path d="M363.541 596.074H297.826V600.074H363.541V596.074Z" fill="#B3B9B9"/>
<path d="M363.541 612.074H297.826V616.074H363.541V612.074Z" fill="#B3B9B9"/>
<path d="M363.541 628.074H297.826V632.074H363.541V628.074Z" fill="#B3B9B9"/>
<path d="M243.83 206.606L237.371 214.074H425.371C419.281 205.502 405.61 202.492 399.535 202.059C395.921 202.492 387.171 202.644 381.081 199.786C373.469 196.214 356.86 199.786 350.171 199.786C344.819 199.786 333.947 195.457 329.179 193.292C325.104 192.317 315.708 190.142 310.725 189.232C305.743 188.323 292.81 191.56 286.966 193.292C283.352 194.915 274.094 198.487 265.975 199.786C257.855 201.085 247.828 204.874 243.83 206.606Z" fill="#323232"/>
<path d="M249.624 208.904L243.371 216.074H425.371C419.475 207.845 406.24 204.956 400.36 204.54C396.861 204.956 388.39 205.101 382.495 202.358C375.125 198.929 359.047 202.358 352.571 202.358C347.39 202.358 336.864 198.201 332.249 196.123C328.304 195.188 319.208 193.099 314.384 192.226C309.561 191.353 297.04 194.46 291.383 196.123C287.885 197.682 278.922 201.111 271.062 202.358C263.201 203.605 253.494 207.242 249.624 208.904Z" fill="#5E5C5C"/>
<path d="M419.118 210.697L425.371 216.074H243.371C249.266 209.902 262.501 207.735 268.382 207.424C271.88 207.735 280.351 207.844 286.247 205.787C293.616 203.215 309.695 205.787 316.171 205.787C321.352 205.787 331.877 202.67 336.492 201.111C340.438 200.409 349.534 198.843 354.357 198.188C359.181 197.534 371.701 199.864 377.359 201.111C380.857 202.28 389.819 204.852 397.68 205.787C405.541 206.722 415.247 209.45 419.118 210.697Z" fill="#7D7D7D"/>
<path d="M237.371 319.074L295.825 381.074H365.825L425.371 319.074V214.288H237.371V319.074Z" fill="#B3B9B9"/>
<path d="M370.826 672.074H291.826V764.074H370.826V672.074Z" fill="#B3B9B9"/>
<path d="M237.826 604.074L291.813 672.074H371.75L425.826 604.074V572.074H237.826V604.074Z" fill="#B3B9B9"/>
<mask id="mask0_7_573" style="mask-type:luminance" maskUnits="userSpaceOnUse" x="291" y="720" width="80" height="13">
<path d="M291.826 720.074H370.826V732.074H291.826V720.074Z" fill="white"/>
</mask>
<g mask="url(#mask0_7_573)">
<path d="M291.826 720.074H370.826V732.074H291.826V720.074Z" fill="#F5F5F5"/>
<path d="M436.066 662.154L352.075 721.948" stroke="#B3B9B9" stroke-width="2"/>
<path d="M352.066 662.154L268.075 721.948" stroke="#B3B9B9" stroke-width="2"/>
<path d="M436.066 666.758L352.075 726.552" stroke="#B3B9B9" stroke-width="2"/>
<path d="M352.066 666.758L268.075 726.552" stroke="#B3B9B9" stroke-width="2"/>
<path d="M436.066 671.362L352.075 731.156" stroke="#B3B9B9" stroke-width="2"/>
<path d="M352.066 671.362L268.075 731.156" stroke="#B3B9B9" stroke-width="2"/>
<path d="M436.066 675.965L352.075 735.759" stroke="#B3B9B9" stroke-width="2"/>
<path d="M352.066 675.965L268.075 735.759" stroke="#B3B9B9" stroke-width="2"/>
<path d="M436.066 680.57L352.075 740.364" stroke="#B3B9B9" stroke-width="2"/>
<path d="M352.066 680.57L268.075 740.364" stroke="#B3B9B9" stroke-width="2"/>
<path d="M436.066 731.211L352.075 791.005" stroke="#B3B9B9" stroke-width="2"/>
<path d="M352.066 731.211L268.075 791.005" stroke="#B3B9B9" stroke-width="2"/>
<path d="M436.066 685.173L352.075 744.967" stroke="#B3B9B9" stroke-width="2"/>
<path d="M352.066 685.173L268.075 744.967" stroke="#B3B9B9" stroke-width="2"/>
<path d="M436.066 689.778L352.075 749.572" stroke="#B3B9B9" stroke-width="2"/>
<path d="M352.066 689.778L268.075 749.572" stroke="#B3B9B9" stroke-width="2"/>
<path d="M436.066 694.381L352.075 754.175" stroke="#B3B9B9" stroke-width="2"/>
<path d="M352.066 694.381L268.075 754.175" stroke="#B3B9B9" stroke-width="2"/>
<path d="M436.066 698.985L352.075 758.779" stroke="#B3B9B9" stroke-width="2"/>
<path d="M352.066 698.985L268.075 758.779" stroke="#B3B9B9" stroke-width="2"/>
<path d="M436.066 703.588L352.075 763.382" stroke="#B3B9B9" stroke-width="2"/>
<path d="M352.066 703.588L268.075 763.382" stroke="#B3B9B9" stroke-width="2"/>
<path d="M436.066 708.192L352.075 767.986" stroke="#B3B9B9" stroke-width="2"/>
<path d="M352.066 708.192L268.075 767.986" stroke="#B3B9B9" stroke-width="2"/>
<path d="M436.066 712.796L352.075 772.59" stroke="#B3B9B9" stroke-width="2"/>
<path d="M352.066 712.796L268.075 772.59" stroke="#B3B9B9" stroke-width="2"/>
<path d="M436.066 717.4L352.075 777.194" stroke="#B3B9B9" stroke-width="2"/>
<path d="M352.066 717.4L268.075 777.194" stroke="#B3B9B9" stroke-width="2"/>
<path d="M436.066 722.004L352.075 781.798" stroke="#B3B9B9" stroke-width="2"/>
<path d="M352.066 722.004L268.075 781.798" stroke="#B3B9B9" stroke-width="2"/>
<path d="M436.066 726.608L352.075 786.402" stroke="#B3B9B9" stroke-width="2"/>
<path d="M352.066 726.608L268.075 786.402" stroke="#B3B9B9" stroke-width="2"/>
</g>
<path d="M331.826 189.074L340.486 174.074H323.166L331.826 189.074ZM330.326 149.074V175.574H333.326V149.074H330.326Z" fill="#677272"/>
<path d="M355.95 163.134L350.392 168.818C350.042 169.154 349.818 169.49 349.678 169.798L349.622 169.784C349.72 169.462 349.776 168.888 349.776 168.048V163.274H347.998V173.214H348.278L353.85 167.53C354.186 167.194 354.41 166.858 354.55 166.55L354.606 166.564C354.508 166.886 354.452 167.46 354.452 168.286V173.074H356.244V163.134H355.95ZM360.254 173.284C362.186 173.284 363.166 172.612 363.166 171.324C363.166 170.274 362.466 169.742 361.234 169.672V169.616C362.34 169.532 362.9 168.986 362.9 168.09C362.9 166.914 361.934 166.396 360.296 166.396C359.302 166.396 358.392 166.606 357.524 166.942L358.07 168.314C358.77 168.006 359.442 167.838 360.072 167.838C360.786 167.838 361.164 168.02 361.164 168.44C361.164 168.818 360.87 169.028 360.31 169.028H359.47V170.372H360.408C361.164 170.372 361.5 170.61 361.5 171.114C361.5 171.618 361.122 171.842 360.184 171.842C359.414 171.842 358.672 171.632 358.028 171.31L357.426 172.682C358.21 173.074 359.232 173.284 360.254 173.284ZM375.197 173.158C375.547 173.158 375.827 173.144 376.247 173.102V171.408C376.093 171.422 375.883 171.45 375.659 171.45C375.141 171.45 374.931 171.226 374.805 170.596L374.553 169.42C374.357 168.37 373.797 168.034 372.229 167.992V167.936C373.769 167.894 374.231 167.614 374.469 166.606L374.777 165.43C374.875 165.024 375.113 164.856 375.603 164.856C375.785 164.856 375.897 164.856 376.093 164.884V163.246C375.813 163.204 375.519 163.19 375.197 163.19C374.021 163.19 373.391 163.61 373.167 164.548L372.831 165.948C372.621 166.886 372.229 167.25 371.473 167.25H370.675C370.493 167.25 370.339 167.264 370.255 167.306L370.241 167.278C370.283 167.166 370.311 167.012 370.311 166.788V163.274H368.519V173.074H370.311V169.182C370.311 168.944 370.283 168.79 370.241 168.678L370.255 168.65C370.325 168.692 370.451 168.706 370.675 168.706H371.473C372.285 168.706 372.677 169.056 372.845 169.98L373.181 171.618C373.391 172.654 374.049 173.158 375.197 173.158ZM381.311 166.984H379.589C379.407 166.984 379.309 166.998 379.225 167.04L379.197 167.012C379.225 166.942 379.253 166.816 379.253 166.634V165.29C379.253 165.094 379.225 164.968 379.197 164.898L379.225 164.87C379.309 164.912 379.407 164.926 379.589 164.926H384.083V163.274H377.461V173.074H381.311C383.271 173.074 384.629 171.996 384.629 170.022C384.629 168.048 383.271 166.984 381.311 166.984ZM381.087 171.45H379.589C379.407 171.45 379.309 171.464 379.225 171.506L379.197 171.478C379.225 171.408 379.253 171.282 379.253 171.086V168.958C379.253 168.776 379.225 168.636 379.197 168.566L379.225 168.538C379.309 168.594 379.407 168.608 379.589 168.608H381.087C382.165 168.608 382.753 169.14 382.753 170.022C382.753 170.946 382.179 171.45 381.087 171.45ZM393.632 175.02H395.326V171.422H394.472C394.262 171.422 394.164 171.436 394.094 171.478L394.066 171.45C394.094 171.38 394.122 171.254 394.122 171.072V163.274H392.33V171.072C392.33 171.254 392.358 171.38 392.4 171.45L392.372 171.478C392.288 171.436 392.19 171.422 391.994 171.422H388.284C388.088 171.422 387.99 171.436 387.906 171.478L387.878 171.45C387.92 171.38 387.948 171.254 387.948 171.072V163.274H386.156V173.074H393.296C393.492 173.074 393.59 173.06 393.674 173.018L393.702 173.046C393.66 173.116 393.632 173.242 393.632 173.424V175.02Z" fill="#262626"/>
<path d="M334.826 804.845L343.486 789.845H326.166L334.826 804.845ZM333.326 768.076V791.345H336.326V768.076H333.326Z" fill="#677272"/>
<path d="M351.014 790.96V781.86H354.329C355.109 781.86 355.729 782.064 356.188 782.471C356.647 782.879 356.877 783.429 356.877 784.122C356.877 785.015 356.496 785.617 355.733 785.929C355.525 786.025 355.291 786.077 355.031 786.085V786.137C355.317 786.146 355.555 786.176 355.746 786.228C356.283 786.358 356.699 786.618 356.994 787.008C357.289 787.39 357.436 787.871 357.436 788.451C357.436 789.223 357.176 789.834 356.656 790.284C356.145 790.735 355.456 790.96 354.589 790.96H351.014ZM352.171 785.747C352.266 785.721 352.375 785.708 352.496 785.708H353.965C354.502 785.708 354.918 785.583 355.213 785.331C355.516 785.08 355.668 784.729 355.668 784.278C355.668 783.854 355.534 783.529 355.265 783.303C355.005 783.078 354.628 782.965 354.134 782.965H352.496C352.349 782.965 352.24 782.948 352.171 782.913L352.145 782.939C352.171 783 352.184 783.113 352.184 783.277V785.409C352.184 785.548 352.171 785.656 352.145 785.734L352.171 785.747ZM352.171 789.907C352.24 789.873 352.349 789.855 352.496 789.855H354.407C355.603 789.855 356.201 789.357 356.201 788.36C356.201 787.312 355.542 786.787 354.225 786.787H352.496C352.357 786.787 352.249 786.77 352.171 786.735L352.145 786.761C352.171 786.822 352.184 786.93 352.184 787.086V789.543C352.184 789.708 352.171 789.821 352.145 789.881L352.171 789.907ZM362.179 792.78V789.946H362.66C362.798 789.946 362.902 789.964 362.972 789.998L362.985 789.985C362.976 789.899 363.002 789.79 363.063 789.66C363.643 788.577 363.934 787.42 363.934 786.189V784.954H367.951V789.647C367.951 789.76 367.929 789.873 367.886 789.985L367.899 789.998C367.968 789.964 368.089 789.946 368.263 789.946H368.64V792.78H367.639V791.272C367.639 791.16 367.66 791.047 367.704 790.934L367.691 790.921C367.613 790.956 367.491 790.973 367.327 790.973H363.505C363.34 790.973 363.219 790.956 363.141 790.921L363.128 790.934C363.171 791.021 363.193 791.134 363.193 791.272V792.78H362.179ZM364.038 790.011C364.124 789.968 364.25 789.946 364.415 789.946H366.599C366.772 789.946 366.893 789.964 366.963 789.998L366.976 789.985C366.932 789.873 366.911 789.76 366.911 789.647V786.241C366.911 786.129 366.932 786.016 366.976 785.903L366.963 785.89C366.893 785.925 366.772 785.942 366.599 785.942H365.286C365.121 785.942 365 785.925 364.922 785.89L364.909 785.903C364.952 785.99 364.974 786.103 364.974 786.241V786.605C364.974 787.203 364.878 787.836 364.688 788.503C364.506 789.162 364.285 789.656 364.025 789.985L364.038 790.011ZM372.53 787.112C373.162 787.112 373.665 787.286 374.038 787.632C374.41 787.97 374.597 788.438 374.597 789.036C374.597 789.617 374.402 790.085 374.012 790.44C373.63 790.787 373.132 790.96 372.517 790.96H369.813V784.954H370.918V786.813C370.918 786.926 370.896 787.039 370.853 787.151L370.866 787.164C370.935 787.13 371.052 787.112 371.217 787.112H372.53ZM375.13 784.954H376.235V790.96H375.13V784.954ZM372.439 789.933C372.751 789.933 372.993 789.855 373.167 789.699C373.349 789.543 373.44 789.327 373.44 789.049C373.44 788.763 373.353 788.542 373.18 788.386C373.006 788.222 372.759 788.139 372.439 788.139H371.217C371.052 788.139 370.935 788.122 370.866 788.087L370.853 788.1C370.896 788.213 370.918 788.326 370.918 788.438V789.634C370.918 789.747 370.896 789.86 370.853 789.972L370.866 789.985C370.935 789.951 371.056 789.933 371.23 789.933H372.439ZM381.239 791.038L380.017 788.204C379.8 787.71 379.666 787.346 379.614 787.112H379.575C379.557 787.338 379.471 787.706 379.315 788.217L378.418 790.96H377.235L379.367 784.876H379.64L381.096 788.243C381.217 788.529 381.308 788.802 381.369 789.062H381.408C381.442 788.846 381.533 788.573 381.681 788.243L383.137 784.876H383.41L385.542 790.96H384.359L383.462 788.217C383.306 787.758 383.219 787.39 383.202 787.112H383.15C383.106 787.338 382.976 787.702 382.76 788.204L381.538 791.038H381.239ZM386.721 785.669C387.345 785.063 388.13 784.759 389.074 784.759C390.019 784.759 390.799 785.063 391.414 785.669C392.03 786.267 392.337 787.03 392.337 787.957C392.337 788.885 392.03 789.652 391.414 790.258C390.799 790.856 390.019 791.155 389.074 791.155C388.13 791.155 387.345 790.856 386.721 790.258C386.106 789.652 385.798 788.885 385.798 787.957C385.798 787.03 386.106 786.267 386.721 785.669ZM390.595 786.423C390.205 786.033 389.698 785.838 389.074 785.838C388.45 785.838 387.943 786.033 387.553 786.423C387.163 786.813 386.968 787.325 386.968 787.957C386.968 788.59 387.163 789.101 387.553 789.491C387.943 789.881 388.45 790.076 389.074 790.076C389.698 790.076 390.205 789.881 390.595 789.491C390.985 789.101 391.18 788.59 391.18 787.957C391.18 787.325 390.985 786.813 390.595 786.423ZM397.775 787.957C398.373 788.139 398.672 788.59 398.672 789.309C398.672 789.812 398.495 790.215 398.139 790.518C397.784 790.813 397.32 790.96 396.748 790.96H393.654V784.954H396.722C397.286 784.954 397.719 785.084 398.022 785.344C398.334 785.604 398.49 785.968 398.49 786.436C398.49 787.026 398.256 787.429 397.788 787.645C397.589 787.741 397.333 787.797 397.021 787.814V787.866C397.316 787.875 397.567 787.905 397.775 787.957ZM394.694 785.916C394.738 786.003 394.759 786.124 394.759 786.28V787.151C394.759 787.273 394.738 787.39 394.694 787.502L394.707 787.515C394.777 787.481 394.894 787.463 395.058 787.463H396.319C396.623 787.463 396.857 787.394 397.021 787.255C397.186 787.108 397.268 786.913 397.268 786.67C397.268 786.194 396.974 785.955 396.384 785.955H395.071C394.898 785.955 394.777 785.938 394.707 785.903L394.694 785.916ZM396.54 789.959C397.147 789.959 397.45 789.686 397.45 789.14C397.45 788.594 397.125 788.321 396.475 788.321H395.058C394.894 788.321 394.777 788.3 394.707 788.256L394.694 788.269C394.738 788.382 394.759 788.499 394.759 788.62V789.66C394.759 789.773 394.738 789.886 394.694 789.998L394.707 790.011C394.777 789.977 394.898 789.959 395.071 789.959H396.54ZM405.307 784.954L401.628 793.573H400.484L401.784 790.557L399.236 784.954H400.497L401.966 788.412C402.165 788.872 402.273 789.275 402.291 789.621H402.343C402.351 789.318 402.438 788.967 402.603 788.568L404.111 784.954H405.307ZM411.333 784.759C412.278 784.759 413.058 785.063 413.673 785.669C414.289 786.267 414.596 787.03 414.596 787.957C414.596 788.885 414.289 789.652 413.673 790.258C413.058 790.856 412.278 791.155 411.333 791.155C410.475 791.155 409.747 790.904 409.149 790.401C408.56 789.899 408.209 789.249 408.096 788.451H407.524C407.36 788.451 407.243 788.434 407.173 788.399L407.16 788.412C407.204 788.499 407.225 788.612 407.225 788.75V790.96H406.159V784.954H407.225V787.138C407.225 787.286 407.204 787.403 407.16 787.489L407.173 787.502C407.26 787.459 407.377 787.437 407.524 787.437H408.096C408.218 786.649 408.573 786.007 409.162 785.513C409.76 785.011 410.484 784.759 411.333 784.759ZM409.812 789.491C410.202 789.881 410.709 790.076 411.333 790.076C411.957 790.076 412.464 789.881 412.854 789.491C413.244 789.101 413.439 788.59 413.439 787.957C413.439 787.325 413.244 786.813 412.854 786.423C412.464 786.033 411.957 785.838 411.333 785.838C410.709 785.838 410.202 786.033 409.812 786.423C409.422 786.813 409.227 787.325 409.227 787.957C409.227 788.59 409.422 789.101 409.812 789.491ZM419.052 784.954H424.72V785.981H422.744C422.57 785.981 422.449 785.964 422.38 785.929L422.367 785.942C422.41 786.029 422.432 786.142 422.432 786.28V790.96H421.34V786.28C421.34 786.142 421.361 786.029 421.405 785.942L421.392 785.929C421.322 785.964 421.201 785.981 421.028 785.981H419.052V784.954ZM429.039 784.759C429.906 784.759 430.612 785.058 431.158 785.656C431.704 786.254 431.977 787.021 431.977 787.957C431.977 788.893 431.704 789.66 431.158 790.258C430.612 790.856 429.906 791.155 429.039 791.155C427.93 791.155 427.146 790.657 426.686 789.66L426.634 789.673C426.721 789.968 426.764 790.393 426.764 790.947V793.56H425.659V784.954H426.725C426.725 785.561 426.699 785.994 426.647 786.254L426.699 786.267C427.159 785.262 427.939 784.759 429.039 784.759ZM428.831 785.799C428.207 785.799 427.696 786.003 427.297 786.41C426.907 786.809 426.712 787.325 426.712 787.957C426.712 788.599 426.907 789.119 427.297 789.517C427.696 789.916 428.212 790.115 428.844 790.115C429.451 790.115 429.932 789.925 430.287 789.543C430.643 789.153 430.82 788.625 430.82 787.957C430.82 787.299 430.643 786.774 430.287 786.384C429.932 785.994 429.447 785.799 428.831 785.799ZM438.302 784.954L434.623 793.573H433.479L434.779 790.557L432.231 784.954H433.492L434.961 788.412C435.16 788.872 435.268 789.275 435.286 789.621H435.338C435.346 789.318 435.433 788.967 435.598 788.568L437.106 784.954H438.302ZM441.914 791.155C440.857 791.155 440.029 790.813 439.431 790.128C438.842 789.444 438.547 788.464 438.547 787.19C438.547 785.223 439.089 783.91 440.172 783.251C440.389 783.13 440.64 783.022 440.926 782.926C441.221 782.822 441.585 782.714 442.018 782.601C442.46 782.489 442.72 782.424 442.798 782.406C443.249 782.285 443.487 782.081 443.513 781.795H444.592C444.592 782.22 444.501 782.549 444.319 782.783C444.137 783.009 443.834 783.182 443.409 783.303C443.262 783.347 442.993 783.412 442.603 783.498C442.222 783.585 441.871 783.676 441.55 783.771C441.238 783.858 440.983 783.953 440.783 784.057C439.977 784.491 439.548 785.47 439.496 786.995H439.548C439.687 786.302 439.99 785.773 440.458 785.409C440.935 785.037 441.516 784.846 442.2 784.837C443.102 784.837 443.821 785.119 444.358 785.682C444.904 786.237 445.177 786.974 445.177 787.892C445.177 788.863 444.874 789.652 444.267 790.258C443.669 790.856 442.885 791.155 441.914 791.155ZM441.927 790.063C442.543 790.063 443.041 789.868 443.422 789.478C443.812 789.088 444.007 788.577 444.007 787.944C444.007 787.312 443.812 786.805 443.422 786.423C443.032 786.042 442.53 785.851 441.914 785.851C441.299 785.851 440.792 786.046 440.393 786.436C439.995 786.826 439.795 787.333 439.795 787.957C439.795 788.59 439.995 789.101 440.393 789.491C440.792 789.873 441.303 790.063 441.927 790.063ZM451.505 784.954L447.826 793.573H446.682L447.982 790.557L445.434 784.954H446.695L448.164 788.412C448.363 788.872 448.472 789.275 448.489 789.621H448.541C448.55 789.318 448.636 788.967 448.801 788.568L450.309 784.954H451.505Z" fill="#2B2B2A"/>
<path d="M1167.33 135.574H1037.33C1032.36 135.574 1028.33 139.604 1028.33 144.574V221.574C1028.33 226.545 1032.36 230.574 1037.33 230.574H1167.33C1172.3 230.574 1176.33 226.545 1176.33 221.574V144.574C1176.33 139.604 1172.3 135.574 1167.33 135.574Z" fill="#E8EAEA"/>
<path d="M1078.23 181.981C1078.89 179.949 1080.79 178.574 1082.92 178.574C1086.27 178.574 1088.65 181.844 1087.61 185.031L1081.38 204.208C1080.72 206.239 1078.82 207.614 1076.69 207.614C1073.34 207.614 1070.96 204.344 1072 201.158L1078.23 181.981Z" fill="#677272"/>
<path d="M1089.34 181.981C1090 179.949 1091.89 178.574 1094.03 178.574C1097.38 178.574 1099.75 181.844 1098.72 185.031L1092.48 204.208C1091.82 206.239 1089.93 207.614 1087.79 207.614C1084.44 207.614 1082.06 204.344 1083.1 201.158L1089.34 181.981Z" fill="#677272"/>
<path d="M1100.44 181.981C1101.1 179.949 1102.99 178.574 1105.13 178.574C1108.48 178.574 1110.85 181.844 1109.82 185.031L1103.58 204.208C1102.92 206.239 1101.03 207.614 1098.89 207.614C1095.54 207.614 1093.17 204.344 1094.2 201.158L1100.44 181.981Z" fill="#677272"/>
<path d="M1111.54 181.981C1112.2 179.949 1114.09 178.574 1116.23 178.574C1119.58 178.574 1121.96 181.844 1120.92 185.031L1114.68 204.208C1114.02 206.239 1112.13 207.614 1109.99 207.614C1106.64 207.614 1104.27 204.344 1105.3 201.158L1111.54 181.981Z" fill="#677272"/>
<path d="M1122.64 181.981C1123.3 179.949 1125.2 178.574 1127.33 178.574C1130.68 178.574 1133.06 181.844 1132.02 185.031L1125.79 204.208C1125.13 206.239 1123.23 207.614 1121.1 207.614C1117.75 207.614 1115.37 204.344 1116.41 201.158L1122.64 181.981Z" fill="#677272"/>
<path d="M1066.82 186.945H1056.36L1071 201.776L1073.73 193.528L1066.82 186.945Z" fill="#677272"/>
<path d="M1133.44 183.018L1131.41 189.54H1144.12L1146.32 182.944L1133.44 183.018Z" fill="#677272"/>
<path d="M1167.33 135.574H1037.33C1032.36 135.574 1028.33 139.604 1028.33 144.574V221.574C1028.33 226.545 1032.36 230.574 1037.33 230.574H1167.33C1172.3 230.574 1176.33 226.545 1176.33 221.574V144.574C1176.33 139.604 1172.3 135.574 1167.33 135.574Z" stroke="#8D9595" stroke-width="2"/>
<path d="M1056.26 102.362H1065.26V59.291H1056.26V102.362Z" fill="#677272"/>
<path d="M1059.26 102.362H1062.26V59.291H1059.26V102.362Z" fill="white"/>
<path d="M1065.26 135.292V87.2915H1056.26V135.292H1065.26Z" fill="#677272"/>
<path d="M1062.26 135.292V87.2915H1059.26V135.292H1062.26Z" fill="white"/>
<path d="M1060.76 143.156L1052.54 128.906H1068.99L1060.76 143.156Z" fill="#677272"/>
<path fill-rule="evenodd" clip-rule="evenodd" d="M1055.43 59.3411C1054.24 59.4003 1053.56 59.8224 1053.34 60.1037C1052.83 60.7576 1051.89 60.8754 1051.24 60.3668C1050.58 59.8582 1050.47 58.9158 1050.97 58.2619C1051.92 57.0432 1053.59 56.4289 1055.28 56.3448C1057.04 56.2577 1059.05 56.7148 1060.96 57.9125C1064.46 60.1143 1066.78 59.0341 1067.54 58.1862C1068.09 57.5671 1069.04 57.5113 1069.65 58.0617C1070.27 58.6121 1070.33 59.5602 1069.78 60.1793C1067.87 62.3315 1063.85 63.2758 1059.36 60.453C1057.97 59.5779 1056.56 59.285 1055.43 59.3411Z" fill="#677272"/>
<path d="M1068.05 124.99L1072.09 118.127L1076.12 124.99H1068.05Z" stroke="#677272" stroke-width="2.5"/>
<path d="M1076.12 110.545L1072.09 117.408L1068.05 110.545H1076.12Z" stroke="#677272" stroke-width="2.5"/>
<path d="M1140.33 111.316H1149.33V62.0946H1140.33V111.316Z" fill="#677272"/>
<path d="M1143.33 111.316H1146.33V62.0946H1143.33V111.316Z" fill="white"/>
<path d="M1140.33 81.5994V136.01H1149.33V81.5994H1140.33Z" fill="#677272"/>
<path d="M1143.33 81.5995V136.01H1146.33V81.5995H1143.33Z" fill="white"/>
<path d="M1144.83 50.3748L1153.05 64.6248H1136.6L1144.83 50.3748Z" fill="#677272"/>
<path d="M1152.47 125.093L1156.5 118.229L1160.54 125.093H1152.47Z" stroke="#677272" stroke-width="2.5"/>
<path d="M1160.54 110.647L1156.5 117.511L1152.47 110.647H1160.54Z" stroke="#677272" stroke-width="2.5"/>
<path d="M1145.37 142.156C1148.96 142.156 1151.87 139.246 1151.87 135.656C1151.87 132.066 1148.96 129.156 1145.37 129.156C1141.78 129.156 1138.87 132.066 1138.87 135.656C1138.87 139.246 1141.78 142.156 1145.37 142.156Z" fill="white" stroke="#677272" stroke-width="2"/>
<path d="M1145.37 138.156C1146.75 138.156 1147.87 137.037 1147.87 135.656C1147.87 134.275 1146.75 133.156 1145.37 133.156C1143.99 133.156 1142.87 134.275 1142.87 135.656C1142.87 137.037 1143.99 138.156 1145.37 138.156Z" fill="#677272" stroke="#677272" stroke-width="2"/>
<path d="M732.865 371.077H587.787C580.629 371.077 574.826 376.88 574.826 384.039V528.116C574.826 535.274 580.629 541.077 587.787 541.077H732.865C740.023 541.077 745.826 535.274 745.826 528.116V384.039C745.826 376.88 740.023 371.077 732.865 371.077Z" fill="#8D9595"/>
<path d="M587.326 377.077L590.121 378.736L592.955 380.327L592.916 383.577L592.955 386.827L590.121 388.418L587.326 390.077L584.531 388.418L581.697 386.827L581.736 383.577L581.697 380.327L584.531 378.736L587.326 377.077Z" fill="#677272"/>
<path d="M587.386 386.197C588.8 386.197 589.946 385.051 589.946 383.637C589.946 382.223 588.8 381.077 587.386 381.077C585.972 381.077 584.826 382.223 584.826 383.637C584.826 385.051 585.972 386.197 587.386 386.197Z" fill="#B3B9B9"/>
<path d="M587.326 449.077L590.121 450.736L592.955 452.327L592.916 455.577L592.955 458.827L590.121 460.418L587.326 462.077L584.531 460.418L581.697 458.827L581.736 455.577L581.697 452.327L584.531 450.736L587.326 449.077Z" fill="#677272"/>
<path d="M587.386 458.197C588.8 458.197 589.946 457.051 589.946 455.637C589.946 454.223 588.8 453.077 587.386 453.077C585.972 453.077 584.826 454.223 584.826 455.637C584.826 457.051 585.972 458.197 587.386 458.197Z" fill="#B3B9B9"/>
<path d="M587.326 522.077L590.121 523.736L592.955 525.327L592.916 528.577L592.955 531.827L590.121 533.418L587.326 535.077L584.531 533.418L581.697 531.827L581.736 528.577L581.697 525.327L584.531 523.736L587.326 522.077Z" fill="#677272"/>
<path d="M587.386 531.197C588.8 531.197 589.946 530.051 589.946 528.637C589.946 527.223 588.8 526.077 587.386 526.077C585.972 526.077 584.826 527.223 584.826 528.637C584.826 530.051 585.972 531.197 587.386 531.197Z" fill="#B3B9B9"/>
<path d="M660.326 377.077L663.121 378.736L665.955 380.327L665.916 383.577L665.955 386.827L663.121 388.418L660.326 390.077L657.531 388.418L654.697 386.827L654.736 383.577L654.697 380.327L657.531 378.736L660.326 377.077Z" fill="#677272"/>
<path d="M660.386 386.197C661.8 386.197 662.946 385.051 662.946 383.637C662.946 382.223 661.8 381.077 660.386 381.077C658.972 381.077 657.826 382.223 657.826 383.637C657.826 385.051 658.972 386.197 660.386 386.197Z" fill="#B3B9B9"/>
<path d="M660.326 522.077L663.121 523.736L665.955 525.327L665.916 528.577L665.955 531.827L663.121 533.418L660.326 535.077L657.531 533.418L654.697 531.827L654.736 528.577L654.697 525.327L657.531 523.736L660.326 522.077Z" fill="#677272"/>
<path d="M660.386 531.197C661.8 531.197 662.946 530.051 662.946 528.637C662.946 527.223 661.8 526.077 660.386 526.077C658.972 526.077 657.826 527.223 657.826 528.637C657.826 530.051 658.972 531.197 660.386 531.197Z" fill="#B3B9B9"/>
<path d="M733.326 377.077L736.121 378.736L738.955 380.327L738.916 383.577L738.955 386.827L736.121 388.418L733.326 390.077L730.531 388.418L727.697 386.827L727.736 383.577L727.697 380.327L730.531 378.736L733.326 377.077Z" fill="#677272"/>
<path d="M733.386 386.197C734.8 386.197 735.946 385.051 735.946 383.637C735.946 382.223 734.8 381.077 733.386 381.077C731.972 381.077 730.826 382.223 730.826 383.637C730.826 385.051 731.972 386.197 733.386 386.197Z" fill="#B3B9B9"/>
<path d="M733.326 449.077L736.121 450.736L738.955 452.327L738.916 455.577L738.955 458.827L736.121 460.418L733.326 462.077L730.531 460.418L727.697 458.827L727.736 455.577L727.697 452.327L730.531 450.736L733.326 449.077Z" fill="#677272"/>
<path d="M733.386 458.197C734.8 458.197 735.946 457.051 735.946 455.637C735.946 454.223 734.8 453.077 733.386 453.077C731.972 453.077 730.826 454.223 730.826 455.637C730.826 457.051 731.972 458.197 733.386 458.197Z" fill="#B3B9B9"/>
<path d="M733.326 522.077L736.121 523.736L738.955 525.327L738.916 528.577L738.955 531.827L736.121 533.418L733.326 535.077L730.531 533.418L727.697 531.827L727.736 528.577L727.697 525.327L730.531 523.736L733.326 522.077Z" fill="#677272"/>
<path d="M733.386 531.197C734.8 531.197 735.946 530.051 735.946 528.637C735.946 527.223 734.8 526.077 733.386 526.077C731.972 526.077 730.826 527.223 730.826 528.637C730.826 530.051 731.972 531.197 733.386 531.197Z" fill="#B3B9B9"/>
<path d="M711.025 396.077H609.627C604.214 396.077 599.826 400.465 599.826 405.878V506.276C599.826 511.689 604.214 516.077 609.627 516.077H711.025C716.438 516.077 720.826 511.689 720.826 506.276V405.878C720.826 400.465 716.438 396.077 711.025 396.077Z" fill="#E8EAEA" stroke="#677272" stroke-width="2"/>
<path d="M707.351 406.157H694.992C693.203 406.157 691.752 407.608 691.752 409.397V421.756C691.752 423.546 693.203 424.997 694.992 424.997H707.351C709.141 424.997 710.592 423.546 710.592 421.756V409.397C710.592 407.608 709.141 406.157 707.351 406.157Z" fill="#FEF1DB"/>
<path d="M700.99 409.917C701.858 409.917 702.53 410.113 703.006 410.505C703.482 410.897 703.72 411.448 703.72 412.157C703.72 412.633 703.603 413.048 703.37 413.403C703.146 413.748 702.833 413.996 702.432 414.145C702.208 414.229 701.937 414.285 701.62 414.313V414.369C701.937 414.369 702.208 414.402 702.432 414.467C703.01 414.626 703.454 414.91 703.762 415.321C704.079 415.722 704.238 416.231 704.238 416.847C704.238 417.762 703.93 418.48 703.314 419.003C702.698 419.526 701.839 419.787 700.738 419.787C699.702 419.787 698.759 419.563 697.91 419.115L698.512 417.533C699.277 417.962 700.019 418.177 700.738 418.177C701.298 418.177 701.732 418.051 702.04 417.799C702.348 417.538 702.502 417.178 702.502 416.721C702.502 416.198 702.292 415.825 701.872 415.601C701.461 415.377 700.775 415.265 699.814 415.265V413.739C701.27 413.739 701.998 413.328 701.998 412.507C701.998 412.18 701.886 411.928 701.662 411.751C701.438 411.574 701.125 411.485 700.724 411.485C700.108 411.485 699.436 411.709 698.708 412.157L698.008 410.757C698.922 410.197 699.916 409.917 700.99 409.917Z" fill="#262626"/>
<path d="M707.351 406.157H694.992C693.203 406.157 691.752 407.608 691.752 409.397V421.756C691.752 423.546 693.203 424.997 694.992 424.997H707.351C709.141 424.997 710.592 423.546 710.592 421.756V409.397C710.592 407.608 709.141 406.157 707.351 406.157Z" stroke="#F69112" stroke-width="2.16024"/>
<path d="M707.351 488.157H694.992C693.203 488.157 691.752 489.608 691.752 491.397V503.756C691.752 505.546 693.203 506.997 694.992 506.997H707.351C709.141 506.997 710.592 505.546 710.592 503.756V491.397C710.592 489.608 709.141 488.157 707.351 488.157Z" fill="#FCDBCB"/>
<path d="M704.551 492.127L703.921 493.793H701.653C701.504 493.793 701.373 493.774 701.261 493.737L701.247 493.751C701.247 493.882 701.219 494.059 701.163 494.283L700.967 494.983C700.921 495.16 700.832 495.319 700.701 495.459L700.715 495.487C700.865 495.431 701.056 495.403 701.289 495.403C702.204 495.403 702.932 495.674 703.473 496.215C704.015 496.756 704.285 497.489 704.285 498.413C704.285 499.468 703.949 500.294 703.277 500.891C702.615 501.488 701.691 501.787 700.505 501.787C699.507 501.787 698.592 501.563 697.761 501.115L698.349 499.575C699.143 499.986 699.875 500.191 700.547 500.191C701.163 500.191 701.644 500.037 701.989 499.729C702.344 499.412 702.521 498.982 702.521 498.441C702.521 497.34 701.803 496.789 700.365 496.789C699.796 496.789 699.301 496.854 698.881 496.985L698.825 496.943L700.253 492.127H704.551Z" fill="#262626"/>
<path d="M707.351 488.157H694.992C693.203 488.157 691.752 489.608 691.752 491.397V503.756C691.752 505.546 693.203 506.997 694.992 506.997H707.351C709.141 506.997 710.592 505.546 710.592 503.756V491.397C710.592 489.608 709.141 488.157 707.351 488.157Z" stroke="#E32112" stroke-width="2.16024"/>
<path d="M625.351 406.157H612.992C611.203 406.157 609.752 407.608 609.752 409.397V421.756C609.752 423.546 611.203 424.997 612.992 424.997H625.351C627.141 424.997 628.592 423.546 628.592 421.756V409.397C628.592 407.608 627.141 406.157 625.351 406.157Z" fill="#EFEFEF"/>
<path d="M621.508 410.127V415.937C621.508 416.114 621.489 416.236 621.452 416.301L621.48 416.329C621.545 416.301 621.652 416.287 621.802 416.287H623.034L622.53 417.869H621.802C621.68 417.869 621.573 417.85 621.48 417.813L621.452 417.841C621.489 417.888 621.508 418.009 621.508 418.205V419.577H619.87V418.205C619.87 418.018 619.884 417.897 619.912 417.841L619.884 417.813C619.809 417.85 619.706 417.869 619.576 417.869H615.348V416.511L619.912 410.127H621.508ZM619.912 412.213C619.79 412.558 619.557 412.978 619.212 413.473L617.63 415.685C617.396 416.002 617.2 416.231 617.042 416.371L617.07 416.399C617.228 416.324 617.522 416.287 617.952 416.287H619.576C619.716 416.287 619.818 416.301 619.884 416.329L619.912 416.301C619.884 416.254 619.87 416.133 619.87 415.937V413.235C619.87 412.815 619.898 412.479 619.954 412.227L619.912 412.213Z" fill="#262626"/>
<path d="M625.351 406.157H612.992C611.203 406.157 609.752 407.608 609.752 409.397V421.756C609.752 423.546 611.203 424.997 612.992 424.997H625.351C627.141 424.997 628.592 423.546 628.592 421.756V409.397C628.592 407.608 627.141 406.157 625.351 406.157Z" stroke="#414F4F" stroke-width="2.16024"/>
<path d="M625.351 488.157H612.992C611.203 488.157 609.752 489.608 609.752 491.397V503.756C609.752 505.546 611.203 506.997 612.992 506.997H625.351C627.141 506.997 628.592 505.546 628.592 503.756V491.397C628.592 489.608 627.141 488.157 625.351 488.157Z" fill="#EFEFEF"/>
<path d="M621.292 492.099L618.744 494.969C618.268 495.52 617.932 496.052 617.736 496.565L617.792 496.579C618.259 495.72 618.907 495.291 619.738 495.291C620.597 495.291 621.297 495.59 621.838 496.187C622.379 496.784 622.65 497.554 622.65 498.497C622.65 499.468 622.328 500.261 621.684 500.877C621.049 501.484 620.223 501.787 619.206 501.787C618.179 501.787 617.349 501.47 616.714 500.835C616.079 500.191 615.762 499.346 615.762 498.301C615.762 497.592 615.893 496.92 616.154 496.285C616.415 495.65 616.849 494.96 617.456 494.213L619.164 492.099H621.292ZM619.192 496.859C618.679 496.859 618.268 497.013 617.96 497.321C617.652 497.629 617.498 498.044 617.498 498.567C617.498 499.062 617.652 499.458 617.96 499.757C618.268 500.056 618.679 500.205 619.192 500.205C619.705 500.205 620.116 500.051 620.424 499.743C620.732 499.426 620.886 499.006 620.886 498.483C620.886 497.988 620.732 497.596 620.424 497.307C620.125 497.008 619.715 496.859 619.192 496.859Z" fill="#262626"/>
<path d="M625.351 488.157H612.992C611.203 488.157 609.752 489.608 609.752 491.397V503.756C609.752 505.546 611.203 506.997 612.992 506.997H625.351C627.141 506.997 628.592 505.546 628.592 503.756V491.397C628.592 489.608 627.141 488.157 625.351 488.157Z" stroke="#414F4F" stroke-width="2.16024"/>
<path d="M614.826 578.62H623.826V516.074H614.826V578.62Z" fill="#677272"/>
<path d="M617.826 581.074H620.826V517.074H617.826V581.074Z" fill="white"/>
<path d="M696.826 578.62H705.826V516.074H696.826V578.62Z" fill="#677272"/>
<path d="M699.826 581.074H702.826V517.074H699.826V581.074Z" fill="white"/>
<path d="M614.826 395.62H623.826V333.074H614.826V395.62Z" fill="#677272"/>
<path d="M617.826 395.074H620.826V331.074H617.826V395.074Z" fill="white"/>
<path d="M423.826 558.077C423.826 561.115 426.288 563.577 429.326 563.577H435.826V554.577H423.826V558.077Z" fill="#677272"/>
<path d="M426.828 557.572C426.828 559.228 428.171 560.572 429.828 560.572H435.828V557.572H426.828Z" fill="white"/>
<path d="M469.328 658.793C469.328 661.83 471.79 664.293 474.828 664.293H481.328V655.293H469.328V658.793Z" fill="#677272"/>
<path d="M472.33 658.287C472.33 659.944 473.673 661.287 475.33 661.287H481.33V658.287H472.33Z" fill="white"/>
<path d="M472.83 554.568C475.868 554.568 478.33 557.031 478.33 560.068V566.568H469.33V554.568H472.83Z" fill="#677272"/>
<path d="M472.322 557.572C473.979 557.572 475.322 558.916 475.322 560.572V566.572H472.322V557.572Z" fill="white"/>
<path d="M696.826 395.62H705.826V333.074H696.826V395.62Z" fill="#677272"/>
<path d="M699.826 395.074H702.826V331.074H699.826V395.074Z" fill="white"/>
<path d="M219.826 485.229V476.229H177.803V485.229H219.826Z" fill="#677272"/>
<path d="M219.826 482.229V479.229H178.131V482.229H219.826Z" fill="white"/>
<path d="M240.647 558.077C240.647 561.115 238.185 563.577 235.147 563.577H228.647V554.577H240.647V558.077Z" fill="#677272"/>
<path d="M237.645 557.571C237.645 559.228 236.302 560.571 234.645 560.571H228.645V557.571H237.645Z" fill="white"/>
<path d="M233.989 563.577V554.577H184.788V563.577H233.989Z" fill="#677272"/>
<path d="M234.345 560.577V557.577H183.999V560.577H234.345Z" fill="white"/>
<path d="M240.648 526.074H232.01V557.084H240.648V526.074Z" fill="#677272"/>
<path d="M237.769 526.074H234.89V557.577H237.769V526.074Z" fill="white"/>
<path d="M423.826 557.355H432.826V526.085H423.826V557.355Z" fill="#677272"/>
<path d="M426.826 558.074H429.826V526.077H426.826V558.074Z" fill="white"/>
<path d="M469.33 658.286H478.33V565.749H469.33V658.286Z" fill="#677272"/>
<path d="M472.33 659.332H475.33V565.727H472.33V659.332Z" fill="white"/>
<path d="M433.714 554.572V563.572H472.313V554.572H433.714Z" fill="#677272"/>
<path d="M432.826 557.57V560.57H472.322V557.57H432.826Z" fill="white"/>
<path d="M477.769 655.287V664.287H518.578V655.287H477.769Z" fill="#677272"/>
<path d="M476.83 658.286V661.286H518.588V658.286H476.83Z" fill="white"/>
<path d="M1219.33 571.617H1228.33V440.077H1219.33V571.617Z" fill="#677272"/>
<path d="M1222.33 571.62H1225.33V441.228H1222.33V571.62Z" fill="white"/>
<path d="M889.33 592.074H898.33V440.075H889.33V592.074Z" fill="#677272"/>
<path d="M892.33 592.077H895.33V441.404H892.33V592.077Z" fill="white"/>
<path d="M168.412 613.481C167.857 613.932 167.09 614.157 166.111 614.157C165.132 614.157 164.365 613.932 163.81 613.481C163.264 613.022 162.991 612.389 162.991 611.583C162.991 610.968 163.151 610.457 163.472 610.049C163.801 609.642 164.252 609.395 164.824 609.308V609.256C164.347 609.17 163.966 608.949 163.68 608.593C163.394 608.229 163.251 607.792 163.251 607.28C163.251 606.578 163.507 606.024 164.018 605.616C164.538 605.2 165.236 604.992 166.111 604.992C166.986 604.992 167.684 605.2 168.204 605.616C168.724 606.024 168.984 606.578 168.984 607.28C168.984 607.792 168.841 608.229 168.555 608.593C168.269 608.949 167.888 609.17 167.411 609.256V609.308C167.974 609.404 168.421 609.655 168.75 610.062C169.079 610.47 169.244 610.977 169.244 611.583C169.244 612.389 168.967 613.022 168.412 613.481ZM165.214 608.281C165.439 608.481 165.738 608.58 166.111 608.58C166.484 608.58 166.783 608.481 167.008 608.281C167.233 608.082 167.346 607.813 167.346 607.475C167.346 607.146 167.233 606.882 167.008 606.682C166.783 606.474 166.484 606.37 166.111 606.37C165.738 606.37 165.439 606.474 165.214 606.682C164.997 606.882 164.889 607.146 164.889 607.475C164.889 607.813 164.997 608.082 165.214 608.281ZM165.045 612.337C165.305 612.58 165.66 612.701 166.111 612.701C166.562 612.701 166.917 612.58 167.177 612.337C167.446 612.095 167.58 611.765 167.58 611.349C167.58 610.925 167.446 610.591 167.177 610.348C166.917 610.097 166.562 609.971 166.111 609.971C165.669 609.971 165.314 610.097 165.045 610.348C164.785 610.591 164.655 610.925 164.655 611.349C164.655 611.757 164.785 612.086 165.045 612.337Z" fill="white"/>
<path d="M158.384 627.992C159.441 627.992 160.26 628.391 160.841 629.188C161.43 629.986 161.725 631.112 161.725 632.568C161.725 634.024 161.43 635.155 160.841 635.961C160.26 636.759 159.441 637.157 158.384 637.157C157.327 637.157 156.503 636.759 155.914 635.961C155.333 635.155 155.043 634.024 155.043 632.568C155.043 631.112 155.333 629.986 155.914 629.188C156.495 628.391 157.318 627.992 158.384 627.992ZM158.384 629.474C157.829 629.474 157.4 629.747 157.097 630.293C156.802 630.831 156.655 631.589 156.655 632.568C156.655 633.548 156.807 634.31 157.11 634.856C157.413 635.402 157.838 635.675 158.384 635.675C158.93 635.675 159.35 635.402 159.645 634.856C159.948 634.31 160.1 633.548 160.1 632.568C160.1 631.589 159.948 630.831 159.645 630.293C159.35 629.747 158.93 629.474 158.384 629.474ZM166.115 627.992C167.173 627.992 167.992 628.391 168.572 629.188C169.162 629.986 169.456 631.112 169.456 632.568C169.456 634.024 169.162 635.155 168.572 635.961C167.992 636.759 167.173 637.157 166.115 637.157C165.058 637.157 164.235 636.759 163.645 635.961C163.065 635.155 162.774 634.024 162.774 632.568C162.774 631.112 163.065 629.986 163.645 629.188C164.226 628.391 165.049 627.992 166.115 627.992ZM166.115 629.474C165.561 629.474 165.132 629.747 164.828 630.293C164.534 630.831 164.386 631.589 164.386 632.568C164.386 633.548 164.538 634.31 164.841 634.856C165.145 635.402 165.569 635.675 166.115 635.675C166.661 635.675 167.082 635.402 167.376 634.856C167.68 634.31 167.831 633.548 167.831 632.568C167.831 631.589 167.68 630.831 167.376 630.293C167.082 629.747 166.661 629.474 166.115 629.474Z" fill="white"/>
<path d="M158.384 650.992C159.441 650.992 160.26 651.391 160.841 652.188C161.43 652.986 161.725 654.112 161.725 655.568C161.725 657.024 161.43 658.155 160.841 658.961C160.26 659.759 159.441 660.157 158.384 660.157C157.327 660.157 156.503 659.759 155.914 658.961C155.333 658.155 155.043 657.024 155.043 655.568C155.043 654.112 155.333 652.986 155.914 652.188C156.495 651.391 157.318 650.992 158.384 650.992ZM158.384 652.474C157.829 652.474 157.4 652.747 157.097 653.293C156.802 653.831 156.655 654.589 156.655 655.568C156.655 656.548 156.807 657.31 157.11 657.856C157.413 658.402 157.838 658.675 158.384 658.675C158.93 658.675 159.35 658.402 159.645 657.856C159.948 657.31 160.1 656.548 160.1 655.568C160.1 654.589 159.948 653.831 159.645 653.293C159.35 652.747 158.93 652.474 158.384 652.474ZM166.115 650.992C167.173 650.992 167.992 651.391 168.572 652.188C169.162 652.986 169.456 654.112 169.456 655.568C169.456 657.024 169.162 658.155 168.572 658.961C167.992 659.759 167.173 660.157 166.115 660.157C165.058 660.157 164.235 659.759 163.645 658.961C163.065 658.155 162.774 657.024 162.774 655.568C162.774 654.112 163.065 652.986 163.645 652.188C164.226 651.391 165.049 650.992 166.115 650.992ZM166.115 652.474C165.561 652.474 165.132 652.747 164.828 653.293C164.534 653.831 164.386 654.589 164.386 655.568C164.386 656.548 164.538 657.31 164.841 657.856C165.145 658.402 165.569 658.675 166.115 658.675C166.661 658.675 167.082 658.402 167.376 657.856C167.68 657.31 167.831 656.548 167.831 655.568C167.831 654.589 167.68 653.831 167.376 653.293C167.082 652.747 166.661 652.474 166.115 652.474Z" fill="white"/>
<path d="M700.917 317.974V319.092H698.59C698.426 319.092 698.313 319.079 698.252 319.053L698.239 319.079C698.265 319.14 698.278 319.244 698.278 319.391V327.074H697.108V319.391C697.108 319.244 697.121 319.14 697.147 319.079L697.121 319.053C697.061 319.079 696.952 319.092 696.796 319.092H694.456V317.974H700.917ZM700.458 329.245L700.939 325.774H702.252L701.082 329.245H700.458ZM709.26 318.104C709.771 318.104 710.191 318.269 710.521 318.598C710.859 318.928 711.028 319.357 711.028 319.885C711.028 320.405 710.859 320.83 710.521 321.159C710.191 321.489 709.771 321.653 709.26 321.653C708.74 321.653 708.311 321.489 707.973 321.159C707.643 320.83 707.479 320.405 707.479 319.885C707.479 319.357 707.643 318.928 707.973 318.598C708.311 318.269 708.74 318.104 709.26 318.104ZM710.131 319.001C709.897 318.767 709.606 318.65 709.26 318.65C708.913 318.65 708.623 318.767 708.389 319.001C708.155 319.227 708.038 319.521 708.038 319.885C708.038 320.241 708.155 320.535 708.389 320.769C708.623 320.995 708.913 321.107 709.26 321.107C709.606 321.107 709.897 320.995 710.131 320.769C710.365 320.535 710.482 320.241 710.482 319.885C710.482 319.521 710.365 319.227 710.131 319.001ZM716.922 327.269C715.475 327.269 714.3 326.832 713.399 325.956C712.506 325.081 712.06 323.937 712.06 322.524C712.06 321.112 712.506 319.968 713.399 319.092C714.3 318.217 715.475 317.779 716.922 317.779C718.135 317.779 719.201 318.117 720.12 318.793L719.405 319.807C718.625 319.253 717.784 318.975 716.883 318.975C715.834 318.975 714.981 319.305 714.322 319.963C713.663 320.622 713.334 321.476 713.334 322.524C713.334 323.573 713.663 324.427 714.322 325.085C714.981 325.744 715.834 326.073 716.883 326.073C717.784 326.073 718.625 325.796 719.405 325.241L720.12 326.255C719.201 326.931 718.135 327.269 716.922 327.269Z" fill="white"/>
<defs>
<linearGradient id="paint0_linear_7_573" x1="986.35" y1="407.074" x2="986.35" y2="436.074" gradientUnits="userSpaceOnUse">
<stop/>
<stop offset="0.296875" stop-opacity="0"/>
<stop offset="0.692708" stop-opacity="0"/>
<stop offset="1"/>
</linearGradient>
<linearGradient id="paint1_linear_7_573" x1="807.33" y1="388.077" x2="807.33" y2="452.077" gradientUnits="userSpaceOnUse">
<stop/>
<stop offset="0.380208" stop-opacity="0"/>
<stop offset="0.625" stop-opacity="0"/>
<stop offset="1"/>
</linearGradient>
<linearGradient id="paint2_linear_7_573" x1="893.17" y1="377.074" x2="893.17" y2="441.074" gradientUnits="userSpaceOnUse">
<stop/>
<stop offset="0.380208" stop-opacity="0"/>
<stop offset="0.625" stop-opacity="0"/>
<stop offset="1"/>
</linearGradient>
<linearGradient id="paint3_linear_7_573" x1="1212.33" y1="396.074" x2="1212.33" y2="425.074" gradientUnits="userSpaceOnUse">
<stop/>
<stop offset="0.296875" stop-opacity="0"/>
<stop offset="0.692708" stop-opacity="0"/>
<stop offset="1"/>
</linearGradient>
<linearGradient id="paint4_linear_7_573" x1="1223.33" y1="377.074" x2="1223.33" y2="441.074" gradientUnits="userSpaceOnUse">
<stop/>
<stop offset="0.380208" stop-opacity="0"/>
<stop offset="0.625" stop-opacity="0"/>
<stop offset="1"/>
</linearGradient>
<linearGradient id="paint5_linear_7_573" x1="311.647" y1="478.229" x2="311.647" y2="507.11" gradientUnits="userSpaceOnUse">
<stop/>
<stop offset="0.296875" stop-opacity="0"/>
<stop offset="0.692708" stop-opacity="0"/>
<stop offset="1"/>
</linearGradient>
<linearGradient id="paint6_linear_7_573" x1="237.326" y1="462.074" x2="237.326" y2="526.074" gradientUnits="userSpaceOnUse">
<stop/>
<stop offset="0.380208" stop-opacity="0"/>
<stop offset="0.625" stop-opacity="0"/>
<stop offset="1"/>
</linearGradient>
<linearGradient id="paint7_linear_7_573" x1="456.137" y1="478.074" x2="456.137" y2="507.074" gradientUnits="userSpaceOnUse">
<stop/>
<stop offset="0.296875" stop-opacity="0"/>
<stop offset="0.692708" stop-opacity="0"/>
<stop offset="1"/>
</linearGradient>
<linearGradient id="paint8_linear_7_573" x1="428.949" y1="462.074" x2="428.949" y2="526.074" gradientUnits="userSpaceOnUse">
<stop/>
<stop offset="0.380208" stop-opacity="0"/>
<stop offset="0.625" stop-opacity="0"/>
<stop offset="1"/>
</linearGradient>
<linearGradient id="paint9_linear_7_573" x1="515.826" y1="458.577" x2="515.826" y2="522.577" gradientUnits="userSpaceOnUse">
<stop/>
<stop offset="0.380208" stop-opacity="0"/>
<stop offset="0.625" stop-opacity="0"/>
<stop offset="1"/>
</linearGradient>
</defs>
</svg>
