<svg width="12" height="15" viewBox="0 0 12 15" fill="none" xmlns="http://www.w3.org/2000/svg">
<path fill-rule="evenodd" clip-rule="evenodd" d="M0.585786 0.627473C0.960859 0.252401 1.46957 0.041687 2 0.041687H7.33333C7.51015 0.041687 7.67971 0.111925 7.80474 0.236949L11.8047 4.23695C11.9298 4.36197 12 4.53154 12 4.70835V12.7084C12 13.2388 11.7893 13.7475 11.4142 14.1226C11.0391 14.4976 10.5304 14.7084 10 14.7084H2C1.46957 14.7084 0.960859 14.4976 0.585786 14.1226C0.210714 13.7475 0 13.2388 0 12.7084V2.04169C0 1.51125 0.210714 1.00255 0.585786 0.627473ZM2 1.37502C1.82319 1.37502 1.65362 1.44526 1.5286 1.57028C1.40357 1.69531 1.33333 1.86488 1.33333 2.04169V12.7084C1.33333 12.8852 1.40357 13.0547 1.5286 13.1798C1.65362 13.3048 1.82319 13.375 2 13.375H10C10.1768 13.375 10.3464 13.3048 10.4714 13.1798C10.5964 13.0547 10.6667 12.8852 10.6667 12.7084V5.37502H7.33333C6.96514 5.37502 6.66667 5.07654 6.66667 4.70835V1.37502H2ZM8 2.31783L9.72386 4.04169H8V2.31783ZM2.66667 5.37502C2.66667 5.00683 2.96514 4.70835 3.33333 4.70835H4.66667C5.03486 4.70835 5.33333 5.00683 5.33333 5.37502C5.33333 5.74321 5.03486 6.04169 4.66667 6.04169H3.33333C2.96514 6.04169 2.66667 5.74321 2.66667 5.37502ZM2.66667 8.04169C2.66667 7.6735 2.96514 7.37502 3.33333 7.37502H8.66667C9.03486 7.37502 9.33333 7.6735 9.33333 8.04169C9.33333 8.40988 9.03486 8.70835 8.66667 8.70835H3.33333C2.96514 8.70835 2.66667 8.40988 2.66667 8.04169ZM2.66667 10.7084C2.66667 10.3402 2.96514 10.0417 3.33333 10.0417H8.66667C9.03486 10.0417 9.33333 10.3402 9.33333 10.7084C9.33333 11.0765 9.03486 11.375 8.66667 11.375H3.33333C2.96514 11.375 2.66667 11.0765 2.66667 10.7084Z" fill="#FFE3B4"/>
</svg>
