<svg width="17" height="17" viewBox="0 0 17 17" fill="none" stroke="inherit"  xmlns="http://www.w3.org/2000/svg">
<path d="M7.50679 6.5322C7.0188 7.08147 6.74927 7.79068 6.74927 8.52541C6.74927 9.26015 7.0188 9.96936 7.50679 10.5186" stroke="inherit" stroke-width="1.00189" stroke-linecap="round" stroke-linejoin="round"/>
<path d="M10.5247 10.5186C11.0126 9.96936 11.2822 9.26015 11.2822 8.52541C11.2822 7.79068 11.0126 7.08147 10.5247 6.5322" stroke="inherit" stroke-width="1.00189" stroke-linecap="round" stroke-linejoin="round"/>
<path d="M5.91332 4.93918C5.00416 5.91184 4.49841 7.19355 4.49841 8.52496C4.49841 9.85637 5.00416 11.1381 5.91332 12.1107" stroke="inherit" stroke-width="1.00189" stroke-linecap="round" stroke-linejoin="round"/>
<path d="M12.1167 12.1107C13.0259 11.1381 13.5316 9.85637 13.5316 8.52496C13.5316 7.19355 13.0259 5.91184 12.1167 4.93918" stroke="inherit" stroke-width="1.00189" stroke-linecap="round" stroke-linejoin="round"/>
<path d="M13.8757 13.5253C15.1037 12.1489 15.7824 10.3688 15.7824 8.52425C15.7824 6.67968 15.1037 4.89958 13.8757 3.52316" stroke="inherit" stroke-width="1.00189" stroke-linecap="round" stroke-linejoin="round"/>
<path d="M4.15455 3.52316C2.92657 4.89958 2.24792 6.67968 2.24792 8.52425C2.24792 10.3688 2.92657 12.1489 4.15455 13.5253" stroke="inherit" stroke-width="1.00189" stroke-linecap="round" stroke-linejoin="round"/>
</svg>
